# xmcd
#
# Track frame offsets:
#	150
#	21400
#	35100
#	47330
#	60170
#	71994
#	84371
#	94755
#	108222
#	120060
#	129938
#	139011
#	149577
#	162676
#	174273
#	185002
#	196824
#	209308
#	219229
#	233294
#	245250
#
# Disc length: 3434 seconds
#
# Revision: 0
# Processed by: cddbd v1.5.2PL0 Copyright (c) Steve Scherf et al.
# Submitted via: EZCDAudioConverter 2.2.2.1
#
DISCID=190d6815
DTITLE=Various Artist - 50's 120 Original Hits
DYEAR=1951
DGENRE=
TTITLE0=Louis Prima and Keely Smith - Just A Gigolo - I Ain't Got Nobody
TTITLE1=The Kingston Trio - Tom Dooley
TTITLE2=George Shearing Quintet - Cheek to Cheek
TTITLE3=Eve Boswell - Sugar Bush
TTITLE4=Tony Brent - The Clouds Will Soon Roll By
TTITLE5=June Christy - Get Happy
TTITLE6=Frankie Lymon and The Teenagers - Why Do Fools Fall in Love
TTITLE7=Dean Martin - In the Cool Cool Cool of the Evening
TTITLE8=Lou Busch and His Orchestra - Zambezi
TTITLE9=Alma Cogan - Never Do a Tango with an Eskimo
TTITLE10=Jim Dale - Be My Girl
TTITLE11=The Four Preps - Big Man
TTITLE12=Billie Anthony - The Treasure of Love
TTITLE13=Gary Miller with Ray Martin's Chorus and Orchestra - From the Time Yo
TTITLE13=u Say Goodbye
TTITLE14=The Everly Brothers - Bye Bye Love
TTITLE15=The Andrews Sisters - Boogie Woogie Bugle Boy
TTITLE16=The Ray Ellington Quartet - The Green Door
TTITLE17=The King Brothers - Wake Up Little Susie
TTITLE18=Kay Starr - Wheel of Fortune
TTITLE19=Ray Martin - Blue Tango
TTITLE20=Ray Anthony - Dragnet
EXTD=
EXTT0=
EXTT1=
EXTT2=
EXTT3=
EXTT4=
EXTT5=
EXTT6=
EXTT7=
EXTT8=
EXTT9=
EXTT10=
EXTT11=
EXTT12=
EXTT13=
EXTT14=
EXTT15=
EXTT16=
EXTT17=
EXTT18=
EXTT19=
EXTT20=
PLAYORDER=
